<svg width="90" height="61" viewBox="0 0 90 61" fill="none" xmlns="http://www.w3.org/2000/svg">
<g clip-path="url(#clip0_30_42)">
<path d="M88.1823 51.8037L87.8936 51.6548C87.3663 51.3849 86.9314 50.963 86.6448 50.4434C86.3582 49.9238 86.2329 49.3301 86.2851 48.7385C86.4717 46.6017 86.4932 44.4537 86.3494 42.3136C86.3059 41.7269 86.436 41.1403 86.7233 40.6275C87.0106 40.1146 87.4424 39.6982 87.9646 39.4304L88.3737 39.2219C88.9548 38.9261 89.4234 38.4475 89.7076 37.8593C89.9919 37.271 90.0762 36.6056 89.9476 35.9647C89.7639 35.0511 89.55 34.1375 89.3058 33.2239C89.126 32.5404 88.9264 31.8635 88.7185 31.1948C88.5181 30.5648 88.1151 30.0193 87.5727 29.6434C87.0304 29.2676 86.3791 29.0827 85.7208 29.1177L85.3645 29.1359C84.7733 29.1698 84.1855 29.0256 83.6766 28.7218C83.1677 28.418 82.761 27.9686 82.5087 27.4312C81.5954 25.4746 80.5302 23.593 79.3229 21.8039C78.9986 21.3176 78.8242 20.7462 78.8216 20.1611C78.819 19.5759 78.9881 19.003 79.308 18.5137L79.5407 18.1562C79.8982 17.6046 80.0647 16.9503 80.0147 16.2943C79.9646 15.6383 79.7006 15.0171 79.2635 14.5266C78.1758 13.3028 77.0231 12.1387 75.8105 11.0394C75.3225 10.5956 74.7021 10.3261 74.0456 10.2729C73.3892 10.2196 72.7336 10.3855 72.1809 10.7448L71.8674 10.9484C71.3761 11.2718 70.8 11.4413 70.2124 11.4351C69.6247 11.4289 69.0522 11.2474 68.5678 10.9136C66.8056 9.69197 64.9517 8.60908 63.0228 7.67463C62.4999 7.41557 62.0646 7.00778 61.7712 6.50212C61.4778 5.99646 61.3393 5.41533 61.373 4.83123L61.3928 4.41746C61.4282 3.76014 61.2464 3.10948 60.8757 2.56636C60.5049 2.02324 59.9659 1.61801 59.3421 1.41351C57.7789 0.894145 56.1889 0.45934 54.5792 0.110972C53.9352 -0.0294963 53.2631 0.0481439 52.6678 0.331744C52.0726 0.615344 51.5878 1.0889 51.2895 1.67832L51.1096 2.02589C50.8444 2.55064 50.4303 2.98487 49.9194 3.27381C49.4085 3.56276 48.8238 3.69349 48.239 3.64951C46.141 3.48535 44.0335 3.48259 41.9351 3.64123C41.3513 3.68275 40.7684 3.55032 40.2594 3.26057C39.7504 2.97083 39.3382 2.53668 39.0743 2.01264L38.8846 1.6386C38.5883 1.05133 38.107 0.578675 37.5154 0.294053C36.9238 0.00943071 36.255 -0.0712201 35.613 0.0646299C34.8585 0.223516 34.1029 0.402815 33.3462 0.602527L33.1812 0.647214C32.3706 0.86789 31.5721 1.10456 30.7857 1.35724C30.1609 1.561 29.6206 1.96577 29.2483 2.50885C28.8761 3.05193 28.6928 3.703 28.7268 4.36119L28.7482 4.77661C28.7801 5.36368 28.6381 5.94709 28.3401 6.45336C28.0421 6.95963 27.6015 7.36613 27.0737 7.62167C25.2169 8.51213 23.43 9.54232 21.7283 10.7034C21.2431 11.0318 20.672 11.2091 20.0867 11.2129C19.5014 11.2167 18.928 11.047 18.4386 10.7249L18.0921 10.5015C17.5408 10.1404 16.8858 9.97234 16.2294 10.0235C15.5729 10.0747 14.9517 10.3423 14.4626 10.7845C13.2064 11.9147 12.0134 13.1137 10.8891 14.376C10.4523 14.8665 10.1881 15.4873 10.1371 16.143C10.0861 16.7987 10.2512 17.4531 10.607 18.0056L10.8314 18.3515C11.1535 18.8442 11.3228 19.4216 11.3178 20.0108C11.3128 20.6 11.1338 21.1745 10.8033 21.6616C9.66676 23.3261 8.65327 25.0719 7.77098 26.885C7.51286 27.4093 7.10662 27.8459 6.6029 28.1402C6.09917 28.4345 5.52025 28.5736 4.93827 28.5401L4.50603 28.5169C3.85176 28.483 3.20451 28.6656 2.6638 29.0367C2.12308 29.4078 1.71886 29.9468 1.51329 30.5708C0.973889 32.1955 0.523914 33.8486 0.165397 35.5228C0.0256025 36.1702 0.103006 36.8457 0.385565 37.4444C0.668124 38.043 1.13999 38.5312 1.72776 38.8329L2.07917 39.0117C2.60249 39.2782 3.03537 39.6943 3.32313 40.2074C3.61089 40.7206 3.74063 41.3078 3.69597 41.8948C3.54385 43.8815 3.53448 45.8766 3.66793 47.8647C3.70535 48.4476 3.5711 49.0288 3.28187 49.5358C2.99265 50.0428 2.56121 50.4534 2.04122 50.7163L1.63702 50.9232C1.05743 51.2183 0.589647 51.6951 0.304697 52.2812C0.0197466 52.8672 -0.0668125 53.5306 0.0581601 54.1705C0.246238 55.0973 0.462911 56.0219 0.708182 56.9444C0.909458 57.6991 1.12943 58.4449 1.3681 59.182C1.60315 59.9236 2.1192 60.543 2.80508 60.9066H10.6251C9.7357 58.9575 9.01162 56.9367 8.4606 54.8656C3.08555 34.6572 15.0994 13.8199 35.2435 8.42769L35.3804 8.39293C55.4833 3.09671 76.1668 15.1373 81.532 35.2977C83.8146 43.8266 83.0446 52.8884 79.3559 60.9066H87.7963C88.0677 60.6076 88.2745 60.2554 88.4034 59.8722C88.933 58.3133 89.3791 56.7272 89.7397 55.1205C89.8839 54.4726 89.809 53.7951 89.5271 53.1946C89.2451 52.5941 88.772 52.1048 88.1823 51.8037V51.8037Z" fill="#EB5757"/>
<path d="M27.1056 60.9231C25.1282 60.9233 23.1787 60.4548 21.4161 59.5558C19.6534 58.6568 18.1274 57.3527 16.9624 55.7498C15.7974 54.147 15.0264 52.2907 14.7122 50.3322C14.398 48.3737 14.5495 46.3684 15.1543 44.4798C15.7591 42.5912 16.8002 40.8727 18.1927 39.4642C19.5852 38.0558 21.2896 36.9973 23.1672 36.3751C25.0448 35.7528 27.0423 35.5844 28.9971 35.8835C30.9519 36.1827 32.8086 36.9409 34.4158 38.0964C34.6676 38.2777 34.8373 38.5519 34.8876 38.8587C34.9379 39.1655 34.8646 39.4798 34.6839 39.7324C34.5032 39.985 34.2299 40.1553 33.924 40.2057C33.6182 40.2562 33.3049 40.1827 33.0531 40.0014C31.0768 38.5846 28.6612 37.9221 26.2413 38.133C23.8213 38.344 21.5559 39.4147 19.8529 41.1523C18.1499 42.8899 17.121 45.1803 16.9516 47.6111C16.7822 50.042 17.4834 52.4537 18.9288 54.4122C20.3743 56.3706 22.4691 57.747 24.8363 58.2938C27.2034 58.8405 29.6874 58.5216 31.841 57.3945C33.9946 56.2673 35.6764 54.406 36.5837 52.1455C37.4909 49.8851 37.5641 47.374 36.7899 45.0642C36.6933 44.7698 36.7167 44.4491 36.855 44.172C36.9933 43.8949 37.2353 43.6839 37.5281 43.5851C37.8209 43.4863 38.1408 43.5078 38.4179 43.6447C38.695 43.7817 38.9069 44.023 39.0072 44.3161C39.6402 46.2104 39.8151 48.2284 39.5176 50.2039C39.2201 52.1793 38.4587 54.0555 37.2962 55.6776C36.1337 57.2997 34.6034 58.6213 32.8315 59.5333C31.0597 60.4454 29.097 60.9217 27.1056 60.9231V60.9231Z" fill="#EB5757"/>
<path d="M61.8094 60.923C59.6891 60.922 57.5983 60.4245 55.7034 59.4702C53.8085 58.5159 52.1618 57.1311 50.8943 55.4259C49.6268 53.7208 48.7735 51.7424 48.4023 49.6481C48.0311 47.5539 48.1523 45.4017 48.7562 43.3628C48.8538 43.0767 49.0577 42.8396 49.3254 42.7007C49.5931 42.5618 49.9039 42.5319 50.193 42.6173C50.4822 42.7027 50.7273 42.8967 50.8773 43.1589C51.0273 43.4211 51.0706 43.7313 50.9982 44.0248C50.2199 46.6247 50.399 49.4186 51.5029 51.897C52.6068 54.3754 54.562 56.3732 57.0118 57.5261C59.4616 58.679 62.2428 58.91 64.8483 58.1772C67.4538 57.4444 69.7099 55.7965 71.2052 53.534C72.7005 51.2716 73.3354 48.5453 72.9941 45.8524C72.6527 43.1595 71.3579 40.6794 69.3457 38.8644C67.3335 37.0493 64.7381 36.0204 62.0327 35.965C59.3273 35.9097 56.6922 36.8318 54.608 38.5631C54.367 38.7348 54.0701 38.8086 53.777 38.7697C53.4839 38.7307 53.2164 38.5819 53.0283 38.3531C52.8402 38.1243 52.7454 37.8326 52.763 37.5365C52.7806 37.2405 52.9093 36.9621 53.1232 36.7574C54.8051 35.3565 56.7986 34.3826 58.935 33.9179C61.0714 33.4532 63.288 33.5115 65.3972 34.0878C67.5064 34.6641 69.4463 35.7414 71.0528 37.2287C72.6592 38.716 73.8851 40.5696 74.6266 42.6326C75.3682 44.6956 75.6036 46.9074 75.313 49.081C75.0224 51.2545 74.2143 53.3259 72.9571 55.12C71.6999 56.9141 70.0305 58.378 68.0901 59.3881C66.1498 60.3982 63.9954 60.9247 61.8094 60.923Z" fill="#EB5757"/>
<path d="M29.3661 48.6044C29.1274 48.6044 28.8944 48.5311 28.6983 48.3944C28.5023 48.2577 28.3527 48.0642 28.2695 47.8397C28.1864 47.6152 28.1737 47.3705 28.2332 47.1386C28.2926 46.9067 28.4214 46.6985 28.6022 46.5422L40.009 36.6829L35.2773 35.1553C35.1261 35.1124 34.9851 35.0394 34.8626 34.9406C34.7402 34.8419 34.6388 34.7194 34.5646 34.5804C34.4904 34.4415 34.4448 34.289 34.4306 34.132C34.4164 33.975 34.4339 33.8168 34.4821 33.6667C34.5302 33.5167 34.6079 33.3779 34.7107 33.2586C34.8135 33.1394 34.9391 33.0422 35.0802 32.9727C35.2212 32.9032 35.3748 32.863 35.5317 32.8544C35.6886 32.8458 35.8456 32.869 35.9934 32.9226L44.6911 35.7362L30.1267 48.328C29.9141 48.5082 29.6444 48.6062 29.3661 48.6044V48.6044Z" fill="#EB5757"/>
<path d="M59.722 44.0894C59.6063 44.0892 59.4912 44.0719 59.3805 44.0381L43.9004 39.3046L52.9578 30.819C53.1865 30.6191 53.4836 30.5161 53.7865 30.5318C54.0894 30.5474 54.3744 30.6805 54.5814 30.903C54.7884 31.1254 54.9011 31.4198 54.8959 31.724C54.8906 32.0283 54.7677 32.3186 54.5532 32.5337L48.4489 38.2453L60.0536 41.7938C60.3208 41.8757 60.5499 42.0509 60.6995 42.2876C60.8491 42.5243 60.9093 42.8069 60.8693 43.0843C60.8292 43.3616 60.6915 43.6155 60.4811 43.7998C60.2706 43.9842 60.0014 44.0869 59.722 44.0894Z" fill="#EB5757"/>
<path d="M28.5988 34.0331C28.3354 34.033 28.0797 33.9437 27.8732 33.7796C27.6667 33.6156 27.5215 33.3865 27.461 33.1293C27.4005 32.8721 27.4282 32.602 27.5398 32.3626C27.6514 32.1232 27.8403 31.9287 28.0758 31.8104C32.1888 29.7565 42.2278 26.4182 49.6206 25.7528C49.7734 25.7395 49.9274 25.7564 50.0737 25.8028C50.22 25.8491 50.3558 25.9239 50.4733 26.0229C50.5908 26.1218 50.6877 26.2431 50.7585 26.3796C50.8293 26.5162 50.8726 26.6654 50.886 26.8187C50.8993 26.972 50.8824 27.1265 50.8362 27.2733C50.79 27.4201 50.7155 27.5563 50.6168 27.6742C50.5181 27.7921 50.3973 27.8893 50.2612 27.9603C50.1251 28.0313 49.9763 28.0748 49.8235 28.0881C42.7128 28.7287 33.0632 31.9378 29.1119 33.9107C28.9526 33.9907 28.7769 34.0326 28.5988 34.0331V34.0331Z" fill="#EB5757"/>
<path d="M23.2501 31.4811C22.9859 31.4806 22.7296 31.3903 22.523 31.2251C22.3164 31.0598 22.1717 30.8293 22.1124 30.571C22.0531 30.3127 22.0827 30.0418 22.1964 29.8026C22.3101 29.5633 22.5012 29.3697 22.7386 29.2533C31.6723 24.8972 42.0578 23.1941 49.1965 22.5338C49.3494 22.5196 49.5035 22.5358 49.6501 22.5815C49.7967 22.6271 49.9329 22.7012 50.0509 22.7997C50.169 22.8981 50.2665 23.0189 50.338 23.1552C50.4096 23.2914 50.4536 23.4405 50.4677 23.5938C50.4818 23.7472 50.4656 23.9018 50.4201 24.0489C50.3746 24.1959 50.3007 24.3326 50.2026 24.451C50.1045 24.5694 49.9841 24.6673 49.8482 24.739C49.7124 24.8107 49.5638 24.8549 49.411 24.8691C42.467 25.5129 32.3784 27.1613 23.7566 31.3635C23.5986 31.4402 23.4255 31.4803 23.2501 31.4811V31.4811Z" fill="#EB5757"/>
<path d="M61.215 20.877C60.7347 20.2985 60.1262 19.8405 59.4382 19.5397C58.0837 18.9721 56.7572 18.4639 52.6426 18.3266C51.2124 18.2882 49.7815 18.3691 48.3647 18.5682C48.0765 18.6286 47.8216 18.796 47.6512 19.0369C47.4807 19.2777 47.4072 19.5742 47.4454 19.8671C47.4836 20.16 47.6306 20.4276 47.857 20.6164C48.0834 20.8052 48.3726 20.9012 48.6666 20.8853C50.3966 20.632 52.1505 20.5853 53.8915 20.7463C53.2936 21.4177 52.8936 22.2428 52.736 23.1292C52.5785 24.0155 52.6698 24.9284 52.9996 25.7658C53.3294 26.6032 53.8848 27.3321 54.6037 27.8711C55.3226 28.41 56.1768 28.7379 57.0707 28.818C57.2175 28.8313 57.3644 28.8379 57.5095 28.8379C58.7169 28.8354 59.8797 28.3804 60.77 27.5623C61.6603 26.7442 62.2138 25.6219 62.322 24.4156V24.4156C62.3797 23.7816 62.3115 23.1425 62.1215 22.5352C61.9315 21.9278 61.6234 21.3642 61.215 20.877V20.877ZM59.9925 24.2136C59.9493 24.6983 59.7666 25.1599 59.4665 25.5422C59.1665 25.9246 58.7622 26.2111 58.3027 26.367C57.8432 26.5229 57.3485 26.5414 56.8787 26.4203C56.409 26.2992 55.9844 26.0436 55.6568 25.6848C55.3293 25.326 55.1128 24.8793 55.0337 24.3992C54.9546 23.9192 55.0164 23.4264 55.2115 22.9809C55.4066 22.5354 55.7267 22.1565 56.1326 21.8902C56.5386 21.6239 57.013 21.4818 57.498 21.4811C57.5722 21.4811 57.6481 21.4811 57.724 21.4911C58.3844 21.5512 58.994 21.8715 59.4193 22.3819C59.8446 22.8923 60.0507 23.551 59.9925 24.2136V24.2136Z" fill="#EB5757"/>
</g>
<defs>
<clipPath id="clip0_30_42">
<rect width="90" height="61" fill="white"/>
</clipPath>
</defs>
</svg>
